<svg width="200" height="200" viewBox="0 0 200 200" xmlns="http://www.w3.org/2000/svg">
  <defs>
    <linearGradient id="bgGrad" x1="0%" y1="0%" x2="100%" y2="100%">
      <stop offset="0%" style="stop-color:#3b82f6;stop-opacity:1" />
      <stop offset="100%" style="stop-color:#1e40af;stop-opacity:1" />
    </linearGradient>
  </defs>
  
  <!-- Background circle -->
  <circle cx="100" cy="100" r="90" fill="url(#bgGrad)" opacity="0.1"/>
  
  <!-- Document icon -->
  <rect x="60" y="40" width="80" height="100" rx="8" fill="#3b82f6" opacity="0.9"/>
  <rect x="70" y="50" width="60" height="8" rx="4" fill="white"/>
  <rect x="70" y="70" width="50" height="6" rx="3" fill="white" opacity="0.8"/>
  <rect x="70" y="80" width="55" height="6" rx="3" fill="white" opacity="0.8"/>
  <rect x="70" y="90" width="45" height="6" rx="3" fill="white" opacity="0.8"/>
  <rect x="70" y="100" width="60" height="6" rx="3" fill="white" opacity="0.8"/>
  <rect x="70" y="110" width="40" height="6" rx="3" fill="white" opacity="0.8"/>
  
  <!-- Checkmark -->
  <circle cx="140" cy="140" r="25" fill="#10b981"/>
  <path d="M 130 140 L 135 145 L 150 130" stroke="white" stroke-width="3" fill="none" stroke-linecap="round" stroke-linejoin="round"/>
  
  <!-- Magnifying glass -->
  <circle cx="80" cy="80" r="15" fill="none" stroke="#3b82f6" stroke-width="3"/>
  <line x1="90" y1="90" x2="100" y2="100" stroke="#3b82f6" stroke-width="3" stroke-linecap="round"/>
</svg> 