<svg width="200" height="200" viewBox="0 0 200 200" xmlns="http://www.w3.org/2000/svg">
  <defs>
    <linearGradient id="complianceGrad" x1="0%" y1="0%" x2="100%" y2="100%">
      <stop offset="0%" style="stop-color:#8b5cf6;stop-opacity:1" />
      <stop offset="100%" style="stop-color:#7c3aed;stop-opacity:1" />
    </linearGradient>
  </defs>
  
  <!-- Background circle -->
  <circle cx="100" cy="100" r="90" fill="url(#complianceGrad)" opacity="0.1"/>
  
  <!-- Building/Office -->
  <rect x="70" y="80" width="60" height="80" fill="#8b5cf6" opacity="0.9"/>
  <rect x="75" y="85" width="10" height="15" fill="white" opacity="0.8"/>
  <rect x="90" y="85" width="10" height="15" fill="white" opacity="0.8"/>
  <rect x="105" y="85" width="10" height="15" fill="white" opacity="0.8"/>
  <rect x="120" y="85" width="10" height="15" fill="white" opacity="0.8"/>
  
  <rect x="75" y="110" width="10" height="15" fill="white" opacity="0.8"/>
  <rect x="90" y="110" width="10" height="15" fill="white" opacity="0.8"/>
  <rect x="105" y="110" width="10" height="15" fill="white" opacity="0.8"/>
  <rect x="120" y="110" width="10" height="15" fill="white" opacity="0.8"/>
  
  <rect x="75" y="135" width="10" height="15" fill="white" opacity="0.8"/>
  <rect x="90" y="135" width="10" height="15" fill="white" opacity="0.8"/>
  <rect x="105" y="135" width="10" height="15" fill="white" opacity="0.8"/>
  <rect x="120" y="135" width="10" height="15" fill="white" opacity="0.8"/>
  
  <!-- Roof -->
  <polygon points="70,80 100,60 130,80" fill="#8b5cf6" opacity="0.9"/>
  
  <!-- Checkmark badge -->
  <circle cx="160" cy="60" r="25" fill="#10b981"/>
  <path d="M 150 60 L 155 65 L 170 50" stroke="white" stroke-width="3" fill="none" stroke-linecap="round" stroke-linejoin="round"/>
  
  <!-- Document stack -->
  <rect x="40" y="120" width="20" height="25" rx="2" fill="#8b5cf6" opacity="0.7" transform="rotate(-15 50 132.5)"/>
  <rect x="42" y="122" width="16" height="3" rx="1.5" fill="white" opacity="0.8" transform="rotate(-15 50 132.5)"/>
  <rect x="42" y="127" width="12" height="2" rx="1" fill="white" opacity="0.8" transform="rotate(-15 50 132.5)"/>
  <rect x="42" y="130" width="14" height="2" rx="1" fill="white" opacity="0.8" transform="rotate(-15 50 132.5)"/>
  
  <!-- Gear icon -->
  <circle cx="160" cy="140" r="20" fill="none" stroke="#8b5cf6" stroke-width="3"/>
  <circle cx="160" cy="140" r="8" fill="#8b5cf6"/>
  <rect x="155" y="115" width="10" height="6" rx="3" fill="#8b5cf6"/>
  <rect x="155" y="159" width="10" height="6" rx="3" fill="#8b5cf6"/>
  <rect x="115" y="155" width="6" height="10" rx="3" fill="#8b5cf6"/>
  <rect x="159" y="155" width="6" height="10" rx="3" fill="#8b5cf6"/>
</svg> 