<svg width="200" height="200" viewBox="0 0 200 200" xmlns="http://www.w3.org/2000/svg">
  <defs>
    <linearGradient id="sanctionsGrad" x1="0%" y1="0%" x2="100%" y2="100%">
      <stop offset="0%" style="stop-color:#10b981;stop-opacity:1" />
      <stop offset="100%" style="stop-color:#059669;stop-opacity:1" />
    </linearGradient>
  </defs>
  
  <!-- Background circle -->
  <circle cx="100" cy="100" r="90" fill="url(#sanctionsGrad)" opacity="0.1"/>
  
  <!-- Globe -->
  <circle cx="100" cy="100" r="50" fill="none" stroke="#10b981" stroke-width="3"/>
  <ellipse cx="100" cy="100" rx="50" ry="15" fill="none" stroke="#10b981" stroke-width="2" opacity="0.7"/>
  <ellipse cx="100" cy="100" rx="15" ry="50" fill="none" stroke="#10b981" stroke-width="2" opacity="0.7"/>
  
  <!-- Location markers -->
  <circle cx="80" cy="70" r="4" fill="#ef4444"/>
  <circle cx="120" cy="130" r="4" fill="#ef4444"/>
  <circle cx="140" cy="80" r="4" fill="#ef4444"/>
  <circle cx="60" cy="120" r="4" fill="#ef4444"/>
  
  <!-- Warning triangle -->
  <polygon points="100,30 85,60 115,60" fill="#f59e0b"/>
  <rect x="95" y="40" width="10" height="8" fill="white"/>
  <rect x="97" y="42" width="6" height="4" fill="#f59e0b"/>
  
  <!-- Shield -->
  <path d="M 100 160 L 120 150 L 120 130 L 100 120 L 80 130 L 80 150 Z" fill="#10b981" opacity="0.8"/>
  <path d="M 100 140 L 110 135 L 110 125 L 100 120 L 90 125 L 90 135 Z" fill="white"/>
  <path d="M 100 130 L 105 127 L 105 122 L 100 120 L 95 122 L 95 127 Z" fill="#10b981"/>
</svg> 